<mxfile host="app.diagrams.net" modified="2021-12-09T21:30:29.120Z" agent="5.0 (Windows NT 10.0; Win64; x64) AppleWebKit/537.36 (KHTML, like Gecko) Chrome/96.0.4664.45 Safari/537.36" etag="FCzA_VwaV4SKecD9tR01" version="15.9.1" type="github">
  <diagram id="n-ouX8FRdQP33tNR-GNY" name="Page-1">
    <mxGraphModel dx="1021" dy="584" grid="1" gridSize="10" guides="1" tooltips="1" connect="1" arrows="1" fold="1" page="1" pageScale="1" pageWidth="1169" pageHeight="827" math="0" shadow="0">
      <root>
        <mxCell id="0" />
        <mxCell id="1" parent="0" />
        <mxCell id="3aPcWrjvERvybHav6zYZ-3" value="" style="html=1;" vertex="1" parent="1">
          <mxGeometry x="364.5" y="210" width="440" height="670" as="geometry" />
        </mxCell>
        <mxCell id="3aPcWrjvERvybHav6zYZ-8" style="edgeStyle=orthogonalEdgeStyle;rounded=0;orthogonalLoop=1;jettySize=auto;html=1;entryX=0;entryY=0.5;entryDx=0;entryDy=0;endArrow=none;endFill=0;" edge="1" parent="1" target="3aPcWrjvERvybHav6zYZ-6">
          <mxGeometry relative="1" as="geometry">
            <mxPoint x="260" y="450" as="sourcePoint" />
          </mxGeometry>
        </mxCell>
        <mxCell id="3aPcWrjvERvybHav6zYZ-36" style="edgeStyle=orthogonalEdgeStyle;rounded=0;orthogonalLoop=1;jettySize=auto;html=1;entryX=0;entryY=0.5;entryDx=0;entryDy=0;endArrow=none;endFill=0;" edge="1" parent="1" target="3aPcWrjvERvybHav6zYZ-35">
          <mxGeometry relative="1" as="geometry">
            <mxPoint x="260" y="470" as="sourcePoint" />
            <Array as="points">
              <mxPoint x="260" y="470" />
              <mxPoint x="330" y="470" />
              <mxPoint x="330" y="655" />
            </Array>
          </mxGeometry>
        </mxCell>
        <mxCell id="3aPcWrjvERvybHav6zYZ-1" value="Convidado" style="shape=umlActor;verticalLabelPosition=bottom;verticalAlign=top;html=1;" vertex="1" parent="1">
          <mxGeometry x="215" y="420" width="30" height="60" as="geometry" />
        </mxCell>
        <mxCell id="3aPcWrjvERvybHav6zYZ-9" style="edgeStyle=orthogonalEdgeStyle;rounded=0;orthogonalLoop=1;jettySize=auto;html=1;entryX=1;entryY=0.5;entryDx=0;entryDy=0;endArrow=none;endFill=0;" edge="1" parent="1" target="3aPcWrjvERvybHav6zYZ-6">
          <mxGeometry relative="1" as="geometry">
            <mxPoint x="920" y="440" as="sourcePoint" />
          </mxGeometry>
        </mxCell>
        <mxCell id="3aPcWrjvERvybHav6zYZ-30" style="edgeStyle=orthogonalEdgeStyle;rounded=0;orthogonalLoop=1;jettySize=auto;html=1;endArrow=none;endFill=0;entryX=0.5;entryY=0;entryDx=0;entryDy=0;" edge="1" parent="1" target="3aPcWrjvERvybHav6zYZ-29">
          <mxGeometry relative="1" as="geometry">
            <mxPoint x="920" y="460" as="sourcePoint" />
            <Array as="points">
              <mxPoint x="740" y="460" />
            </Array>
          </mxGeometry>
        </mxCell>
        <mxCell id="3aPcWrjvERvybHav6zYZ-38" style="edgeStyle=orthogonalEdgeStyle;rounded=0;orthogonalLoop=1;jettySize=auto;html=1;entryX=1;entryY=0.5;entryDx=0;entryDy=0;endArrow=none;endFill=0;" edge="1" parent="1" target="3aPcWrjvERvybHav6zYZ-37">
          <mxGeometry relative="1" as="geometry">
            <mxPoint x="940" y="500" as="sourcePoint" />
            <Array as="points">
              <mxPoint x="940" y="655" />
            </Array>
          </mxGeometry>
        </mxCell>
        <mxCell id="3aPcWrjvERvybHav6zYZ-2" value="Administrador" style="shape=umlActor;verticalLabelPosition=bottom;verticalAlign=top;html=1;" vertex="1" parent="1">
          <mxGeometry x="925" y="410" width="30" height="60" as="geometry" />
        </mxCell>
        <mxCell id="3aPcWrjvERvybHav6zYZ-5" value="Leilão" style="text;html=1;strokeColor=none;fillColor=none;align=center;verticalAlign=middle;whiteSpace=wrap;rounded=0;" vertex="1" parent="1">
          <mxGeometry x="555" y="230" width="60" height="30" as="geometry" />
        </mxCell>
        <mxCell id="3aPcWrjvERvybHav6zYZ-6" value="Abrir aplicativo" style="ellipse;whiteSpace=wrap;html=1;" vertex="1" parent="1">
          <mxGeometry x="535" y="280" width="100" height="50" as="geometry" />
        </mxCell>
        <mxCell id="3aPcWrjvERvybHav6zYZ-11" value="Fazer login" style="ellipse;whiteSpace=wrap;html=1;" vertex="1" parent="1">
          <mxGeometry x="570" y="390" width="100" height="50" as="geometry" />
        </mxCell>
        <mxCell id="3aPcWrjvERvybHav6zYZ-13" value="Include" style="html=1;verticalAlign=bottom;endArrow=open;dashed=1;endSize=8;rounded=0;entryX=0.5;entryY=0;entryDx=0;entryDy=0;exitX=0.5;exitY=1;exitDx=0;exitDy=0;" edge="1" parent="1" source="3aPcWrjvERvybHav6zYZ-6" target="3aPcWrjvERvybHav6zYZ-11">
          <mxGeometry relative="1" as="geometry">
            <mxPoint x="660" y="340" as="sourcePoint" />
            <mxPoint x="580" y="340" as="targetPoint" />
          </mxGeometry>
        </mxCell>
        <mxCell id="3aPcWrjvERvybHav6zYZ-15" value="Realizar cadastro" style="ellipse;whiteSpace=wrap;html=1;" vertex="1" parent="1">
          <mxGeometry x="455" y="320" width="100" height="50" as="geometry" />
        </mxCell>
        <mxCell id="3aPcWrjvERvybHav6zYZ-16" value="Extends" style="html=1;verticalAlign=bottom;endArrow=open;dashed=1;endSize=8;rounded=0;entryX=0;entryY=0;entryDx=0;entryDy=0;exitX=1;exitY=1;exitDx=0;exitDy=0;" edge="1" parent="1" source="3aPcWrjvERvybHav6zYZ-15" target="3aPcWrjvERvybHav6zYZ-11">
          <mxGeometry relative="1" as="geometry">
            <mxPoint x="530" y="420" as="sourcePoint" />
            <mxPoint x="450" y="420" as="targetPoint" />
          </mxGeometry>
        </mxCell>
        <mxCell id="3aPcWrjvERvybHav6zYZ-18" value="Inserir chave especial" style="ellipse;whiteSpace=wrap;html=1;" vertex="1" parent="1">
          <mxGeometry x="420" y="420" width="100" height="50" as="geometry" />
        </mxCell>
        <mxCell id="3aPcWrjvERvybHav6zYZ-19" value="Extends" style="html=1;verticalAlign=bottom;endArrow=open;dashed=1;endSize=8;rounded=0;exitX=0.5;exitY=0;exitDx=0;exitDy=0;entryX=0;entryY=1;entryDx=0;entryDy=0;" edge="1" parent="1" source="3aPcWrjvERvybHav6zYZ-18" target="3aPcWrjvERvybHav6zYZ-15">
          <mxGeometry relative="1" as="geometry">
            <mxPoint x="530" y="400" as="sourcePoint" />
            <mxPoint x="450" y="400" as="targetPoint" />
          </mxGeometry>
        </mxCell>
        <mxCell id="3aPcWrjvERvybHav6zYZ-22" value="Mostrar que a chave inserida é inválida" style="ellipse;whiteSpace=wrap;html=1;" vertex="1" parent="1">
          <mxGeometry x="410" y="530" width="120" height="60" as="geometry" />
        </mxCell>
        <mxCell id="3aPcWrjvERvybHav6zYZ-23" value="Extends" style="html=1;verticalAlign=bottom;endArrow=open;dashed=1;endSize=8;rounded=0;exitX=0.5;exitY=0;exitDx=0;exitDy=0;entryX=0.5;entryY=1;entryDx=0;entryDy=0;" edge="1" parent="1" source="3aPcWrjvERvybHav6zYZ-22" target="3aPcWrjvERvybHav6zYZ-18">
          <mxGeometry relative="1" as="geometry">
            <mxPoint x="490" y="510" as="sourcePoint" />
            <mxPoint x="410" y="510" as="targetPoint" />
          </mxGeometry>
        </mxCell>
        <mxCell id="3aPcWrjvERvybHav6zYZ-26" value="Abrir página inicial" style="ellipse;whiteSpace=wrap;html=1;" vertex="1" parent="1">
          <mxGeometry x="670" y="320" width="80" height="40" as="geometry" />
        </mxCell>
        <mxCell id="3aPcWrjvERvybHav6zYZ-27" value="Extends" style="html=1;verticalAlign=bottom;endArrow=open;dashed=1;endSize=8;rounded=0;entryX=1;entryY=0;entryDx=0;entryDy=0;exitX=0;exitY=1;exitDx=0;exitDy=0;" edge="1" parent="1" source="3aPcWrjvERvybHav6zYZ-26" target="3aPcWrjvERvybHav6zYZ-11">
          <mxGeometry relative="1" as="geometry">
            <mxPoint x="730" y="410" as="sourcePoint" />
            <mxPoint x="650" y="410" as="targetPoint" />
          </mxGeometry>
        </mxCell>
        <mxCell id="3aPcWrjvERvybHav6zYZ-29" value="Cadastrar obra" style="ellipse;whiteSpace=wrap;html=1;" vertex="1" parent="1">
          <mxGeometry x="700" y="470" width="80" height="40" as="geometry" />
        </mxCell>
        <mxCell id="3aPcWrjvERvybHav6zYZ-32" value="Encerrar leilão de uma obra" style="ellipse;whiteSpace=wrap;html=1;" vertex="1" parent="1">
          <mxGeometry x="680" y="530" width="120" height="60" as="geometry" />
        </mxCell>
        <mxCell id="3aPcWrjvERvybHav6zYZ-35" value="Selecionar uma obra" style="ellipse;whiteSpace=wrap;html=1;" vertex="1" parent="1">
          <mxGeometry x="420" y="630" width="100" height="50" as="geometry" />
        </mxCell>
        <mxCell id="3aPcWrjvERvybHav6zYZ-37" value="Selecionar uma obrar" style="ellipse;whiteSpace=wrap;html=1;" vertex="1" parent="1">
          <mxGeometry x="650" y="630" width="100" height="50" as="geometry" />
        </mxCell>
        <mxCell id="3aPcWrjvERvybHav6zYZ-40" value="Extends" style="html=1;verticalAlign=bottom;endArrow=open;dashed=1;endSize=8;rounded=0;entryX=0.5;entryY=0;entryDx=0;entryDy=0;exitX=0.5;exitY=1;exitDx=0;exitDy=0;" edge="1" parent="1" source="3aPcWrjvERvybHav6zYZ-32" target="3aPcWrjvERvybHav6zYZ-37">
          <mxGeometry relative="1" as="geometry">
            <mxPoint x="780" y="610" as="sourcePoint" />
            <mxPoint x="700" y="610" as="targetPoint" />
          </mxGeometry>
        </mxCell>
        <mxCell id="3aPcWrjvERvybHav6zYZ-41" value="Dar lance para uma obra" style="ellipse;whiteSpace=wrap;html=1;" vertex="1" parent="1">
          <mxGeometry x="427" y="727" width="86" height="43" as="geometry" />
        </mxCell>
        <mxCell id="3aPcWrjvERvybHav6zYZ-43" value="Extends" style="html=1;verticalAlign=bottom;endArrow=open;dashed=1;endSize=8;rounded=0;entryX=0.5;entryY=1;entryDx=0;entryDy=0;exitX=0.5;exitY=0;exitDx=0;exitDy=0;" edge="1" parent="1" source="3aPcWrjvERvybHav6zYZ-41" target="3aPcWrjvERvybHav6zYZ-35">
          <mxGeometry relative="1" as="geometry">
            <mxPoint x="520" y="700" as="sourcePoint" />
            <mxPoint x="440" y="700" as="targetPoint" />
          </mxGeometry>
        </mxCell>
        <mxCell id="3aPcWrjvERvybHav6zYZ-45" value="Mostrar que o valor do lance é inválido" style="ellipse;whiteSpace=wrap;html=1;" vertex="1" parent="1">
          <mxGeometry x="555" y="760" width="140" height="70" as="geometry" />
        </mxCell>
        <mxCell id="3aPcWrjvERvybHav6zYZ-46" value="Extends" style="html=1;verticalAlign=bottom;endArrow=open;dashed=1;endSize=8;rounded=0;entryX=1;entryY=1;entryDx=0;entryDy=0;exitX=0;exitY=0.5;exitDx=0;exitDy=0;" edge="1" parent="1" source="3aPcWrjvERvybHav6zYZ-45" target="3aPcWrjvERvybHav6zYZ-41">
          <mxGeometry relative="1" as="geometry">
            <mxPoint x="610" y="670" as="sourcePoint" />
            <mxPoint x="530" y="670" as="targetPoint" />
          </mxGeometry>
        </mxCell>
        <mxCell id="3aPcWrjvERvybHav6zYZ-49" value="Exigir dados que faltam no cadastro" style="ellipse;whiteSpace=wrap;html=1;" vertex="1" parent="1">
          <mxGeometry x="555" y="570" width="120" height="60" as="geometry" />
        </mxCell>
        <mxCell id="3aPcWrjvERvybHav6zYZ-50" value="Extends" style="html=1;verticalAlign=bottom;endArrow=open;dashed=1;endSize=8;rounded=0;entryX=1;entryY=0;entryDx=0;entryDy=0;exitX=0.5;exitY=1;exitDx=0;exitDy=0;" edge="1" parent="1" source="3aPcWrjvERvybHav6zYZ-49" target="3aPcWrjvERvybHav6zYZ-41">
          <mxGeometry relative="1" as="geometry">
            <mxPoint x="630" y="720" as="sourcePoint" />
            <mxPoint x="550" y="720" as="targetPoint" />
          </mxGeometry>
        </mxCell>
        <mxCell id="3aPcWrjvERvybHav6zYZ-51" value="Selecionar opção de parcelamento" style="ellipse;whiteSpace=wrap;html=1;" vertex="1" parent="1">
          <mxGeometry x="640" y="700" width="120" height="60" as="geometry" />
        </mxCell>
        <mxCell id="3aPcWrjvERvybHav6zYZ-52" value="Include" style="html=1;verticalAlign=bottom;endArrow=open;dashed=1;endSize=8;rounded=0;entryX=0;entryY=0.5;entryDx=0;entryDy=0;exitX=1;exitY=0.5;exitDx=0;exitDy=0;" edge="1" parent="1" source="3aPcWrjvERvybHav6zYZ-41" target="3aPcWrjvERvybHav6zYZ-51">
          <mxGeometry relative="1" as="geometry">
            <mxPoint x="620" y="730" as="sourcePoint" />
            <mxPoint x="540" y="730" as="targetPoint" />
          </mxGeometry>
        </mxCell>
        <mxCell id="3aPcWrjvERvybHav6zYZ-54" value="Mostrar que os dados do cartão de crédito são inválidos" style="ellipse;whiteSpace=wrap;html=1;" vertex="1" parent="1">
          <mxGeometry x="520" y="450" width="160" height="80" as="geometry" />
        </mxCell>
        <mxCell id="3aPcWrjvERvybHav6zYZ-55" value="Extends" style="html=1;verticalAlign=bottom;endArrow=open;dashed=1;endSize=8;rounded=0;entryX=0.5;entryY=1;entryDx=0;entryDy=0;exitX=0;exitY=0;exitDx=0;exitDy=0;" edge="1" parent="1" source="3aPcWrjvERvybHav6zYZ-54" target="3aPcWrjvERvybHav6zYZ-15">
          <mxGeometry relative="1" as="geometry">
            <mxPoint x="620" y="420" as="sourcePoint" />
            <mxPoint x="540" y="420" as="targetPoint" />
          </mxGeometry>
        </mxCell>
        <mxCell id="3aPcWrjvERvybHav6zYZ-58" value="Extends" style="html=1;verticalAlign=bottom;endArrow=open;dashed=1;endSize=8;rounded=0;exitX=0.5;exitY=1;exitDx=0;exitDy=0;entryX=0.5;entryY=0;entryDx=0;entryDy=0;" edge="1" parent="1" source="3aPcWrjvERvybHav6zYZ-54" target="3aPcWrjvERvybHav6zYZ-49">
          <mxGeometry relative="1" as="geometry">
            <mxPoint x="630" y="540" as="sourcePoint" />
            <mxPoint x="550" y="540" as="targetPoint" />
          </mxGeometry>
        </mxCell>
      </root>
    </mxGraphModel>
  </diagram>
</mxfile>
